<?xml version="1.0" standalone="no"?>
<!DOCTYPE svg PUBLIC "-//W3C//DTD SVG 1.1//EN" "http://www.w3.org/Graphics/SVG/1.1/DTD/svg11.dtd" >
<!--
2013-9-30: Created.
-->
<svg>
<metadata>
Created by iconfont
</metadata>
<defs>

<font id="iconfont" horiz-adv-x="1024" >
  <font-face
    font-family="iconfont"
    font-weight="500"
    font-stretch="normal"
    units-per-em="1024"
    ascent="896"
    descent="-128"
  />
    <missing-glyph />
    
    <glyph glyph-name="x" unicode="x" horiz-adv-x="1001"
d="M281 543q-27 -1 -53 -1h-83q-18 0 -36.5 -6t-32.5 -18.5t-23 -32t-9 -45.5v-76h912v41q0 16 -0.5 30t-0.5 18q0 13 -5 29t-17 29.5t-31.5 22.5t-49.5 9h-133v-97h-438v97zM955 310v-52q0 -23 0.5 -52t0.5 -58t-10.5 -47.5t-26 -30t-33 -16t-31.5 -4.5q-14 -1 -29.5 -0.5
t-29.5 0.5h-32l-45 128h-439l-44 -128h-29h-34q-20 0 -45 1q-25 0 -41 9.5t-25.5 23t-13.5 29.5t-4 30v167h911zM163 247q-12 0 -21 -8.5t-9 -21.5t9 -21.5t21 -8.5q13 0 22 8.5t9 21.5t-9 21.5t-22 8.5zM316 123q-8 -26 -14 -48q-5 -19 -10.5 -37t-7.5 -25t-3 -15t1 -14.5
t9.5 -10.5t21.5 -4h37h67h81h80h64h36q23 0 34 12t2 38q-5 13 -9.5 30.5t-9.5 34.5q-5 19 -11 39h-368zM336 498v228q0 11 2.5 23t10 21.5t20.5 15.5t34 6h188q31 0 51.5 -14.5t20.5 -52.5v-227h-327z" />
    

    
    <glyph glyph-name="rizhi" unicode="&#58945;" d="M960 768L192 768l0-896 518.4 0 0 0L960-128 960 768 960 768 960 768zM832 896L64 896l0-896 64 0L128 832l704 0L832 896 832 896zM320 640l448 0 0-128L320 512 320 640 320 640 320 640zM320 384l448 0 0-128L320 256 320 384 320 384 320 384zM320 128l448 0 0-128L320 0 320 128 320 128 320 128z"  horiz-adv-x="1024" />

    
    <glyph glyph-name="quanxian" unicode="&#59005;" d="M840.380494 743.236757L248.894162 743.236757c-85.932138 0-169.384805-70.800509-169.384805-153.332201l0-388.532991c0-82.530668 83.452667-148.868539 169.384805-148.868539L840.380494 52.503026999999975c85.975117 0 131.451868 66.335824 131.451868 148.868539L971.832362 589.9045570000001C971.832362 672.436248 926.354588 743.236757 840.380494 743.236757zM553.947879 343.46070199999997c5.716188-7.887644 13.225209-13.554714 22.51376-16.945951 2.155083-1.24434 4.000104-2.494821 5.548366-3.712555 3.406586-2.806929 5.729491-6.361895 6.965645-10.679223 0.624217-3.722788 0.459464-8.201799-0.464581-13.468756-0.918929-5.238304-2.467191-10.573823-4.624321-16.008602-2.173502-5.403057-4.825912-10.277064-7.888667-14.626115-3.095501-4.313236-6.506181-7.408737-10.228969-9.28855-3.703345-1.841951-6.966669-2.76395-9.746992-2.76395-2.783393 0-5.878894 0.590448-9.270131 1.845021-3.098571 0.918929-6.970762 1.77646-11.595083 2.568499-4.663206 0.757247-9.371438 0.921999-14.164604 0.459464-4.806469-0.459464-9.582239-1.480724-14.391778-3.02694-4.77577-1.549286-8.893554-4.184299-12.285814-7.873318-7.426133-7.739265-11.775184-16.566304-13.010315-26.482141-1.236154-9.878998 0.163729-19.333324 4.185322-28.291346 3.095501-6.194072 2.617617-12.385075-1.399883-18.577101-1.845021-2.471284-4.79419-5.037736-8.812713-7.641027-4.018523-2.631944-8.43102-5.039783-13.239536-7.213285-4.77577-2.14178-9.815553-3.853771-15.086603-5.104251-5.239328-1.219781-9.882068-1.843998-13.919011-1.843998-2.781346 0-5.417383 1.086751-7.888667 3.25923-2.485611 2.174526-4.180206 4.480035-5.103228 6.952342l-0.459464 0c-3.393283 9.582239-9.205663 17.84953-17.424858 24.833595-8.184403 6.949272-17.686824 10.440793-28.523637 10.440793-10.506285 0-20.025079-3.491521-28.556383-10.440793-8.496511-6.983041-14.458293-15.084557-17.853623-24.373107-1.549286-3.722788-3.885494-6.42227-6.966669-8.134261-3.093455-1.680269-6.503111-2.535753-10.226922-2.535753-4.313236 0-9.188266 0.788969-14.591323 2.335185-5.434779 1.550309-10.833743 3.459798-16.254196 5.798053-5.417383 2.305509-10.293437 5.008061-14.624069 8.103562-4.330632 3.094478-7.573489 6.193049-9.746992 9.286504-1.549286 2.173502-2.388397 4.744048-2.553149 7.643074-0.149403 2.963495 1.003863 7.049556 3.490497 12.31856 3.394307 7.115048 4.711302 15.251356 3.921309 24.37106-0.75827 9.124821-4.693906 17.557888-11.82328 25.297153-4.317329 4.644787-9.587356 7.643074-15.777335 9.024537-6.175653 1.417279-12.05557 1.944282-17.622356 1.647523-6.488785-0.329505-13.159718-1.581008-19.961634-3.722788-4.348028-1.25355-8.662287-0.921999-13.010315 0.923022-3.39226 1.217734-6.55223 4.116761-9.501398 8.594749-2.948145 4.479011-5.584182 9.419534-7.888667 14.854313-2.340301 5.402033-4.098341 10.969842-5.334495 16.699334-1.25355 5.730515-1.549286 10.440793-0.921999 14.164604 0.921999 6.783497 4.016477 11.132548 9.28855 12.977569 9.255805 3.729951 17.622356 9.839089 25.047466 18.35402 7.429203 8.498558 11.149944 18.017352 11.149944 28.523637 0 10.836813-3.721765 20.274766-11.149944 28.341488-7.42511 8.020674-15.791661 13.899568-25.047466 17.622356-2.798742 0.921999-5.121648 3.180436-6.983041 6.737448-1.845021 3.540639-2.781346 7.179516-2.781346 10.901281 0 4.0175 0.608867 8.496511 1.858324 13.45443 1.254573 4.940522 2.867304 9.733689 4.875031 14.377452 2.00875 4.65809 4.330632 8.90788 6.949272 12.761652 2.635013 3.888564 5.501294 6.737448 8.596795 8.595772 2.470261 1.549286 4.874007 2.157129 7.196912 1.862417 2.321882-0.313132 4.857635-0.921999 7.656377-1.862417 9.273201-3.703345 18.956747-4.874007 29.000498-3.473101 10.063193 1.381463 18.956747 5.796006 26.696012 13.20679 3.721765 3.721765 6.40692 8.283664 8.101515 13.701047 1.713015 5.420453 2.797719 10.754948 3.261277 16.025998 0.459464 5.253654 0.459464 10.045797 0 14.377452-0.463558 4.329609-0.857531 7.443529-1.153266 9.287527-0.626263 1.859347-1.168616 4.018523-1.630127 6.488785-0.476861 2.468215-0.228197 4.644787 0.694825 6.503111 1.859347 4.329609 5.185093 8.119935 9.979282 11.363815 4.79112 3.244904 9.979282 5.962805 15.563464 8.120958 5.566786 2.173502 10.966773 3.802606 16.236799 4.872984 5.252631 1.088798 9.437953 1.63115 12.518105 1.63115 4.018523 0 7.212262-1.318018 9.516748-3.953032 2.321882-2.617617 3.953032-5.334495 4.876054-8.116865 3.408633-8.351202 8.974395-15.694447 16.699334-22.052249 7.756661-6.340405 16.879436-9.501398 27.405163-9.501398 10.80202 0 20.422122 3.012613 28.770254 9.038864 8.351202 6.043646 14.228049 13.68672 17.639752 22.991644 1.232061 2.469238 3.158946 5.022387 5.796006 7.638981 2.63399 2.636037 5.337565 3.953032 8.119935 3.953032 4.331655 0 9.042957-0.626263 14.146185-1.858324 5.121648-1.235131 10.146081-2.931772 15.102976-5.107321 4.940522-2.158153 9.503445-4.939499 13.684674-8.348132 4.183276-3.411703 7.510044-7.116071 9.981329-11.133571 1.546216-2.488681 2.00875-5.189186 1.399883-8.137331-0.626263-2.930749-1.25355-5.022387-1.862417-6.240121-4.018523-8.991792-5.272074-18.430768-3.722788-28.341488 1.550309-9.884115 6.02625-18.544355 13.473873-25.972535 7.40669-7.426133 16.532535-11.528568 27.369348-12.302187 10.837836-0.788969 20.880563 1.003863 30.18651 5.335519 2.472308 1.550309 5.483898 2.157129 9.024537 1.862417 3.575432-0.313132 6.588045-1.698688 9.057283-4.183276 4.643764-4.330632 8.747221-10.901281 12.304234-19.730367 3.539616-8.806573 5.962805-17.717524 7.18054-26.678616 0.626263-5.266957-0.214894-9.371438-2.536776-12.301164-2.322905-2.930749-4.711302-4.875031-7.179516-5.79703-9.619078-3.426029-17.819854-9.371438-24.606421-17.86795-6.816243-8.514931-10.211573-18.180058-10.211573-29.015847C545.367457 360.53865900000005 548.234761 351.349369 553.947879 343.46070199999997zM884.851335 211.11753399999998L683.403277 211.11753399999998l0 71.631434 201.447035 0L884.850311 211.11753399999998zM884.851335 354.380402L683.403277 354.380402l0 71.631434 201.447035 0L884.850311 354.380402zM884.851335 497.64327L683.403277 497.64327l0 58.328453 201.447035 0L884.850311 497.64327z"  horiz-adv-x="1024" />

    
    <glyph glyph-name="tongzhi" unicode="&#58934;" d="M532.166961 851.452087c-12.641975 6.621987-27.691946 4.815991-38.527925-4.815991C493.037037 846.636096 439.459142 802.690182 381.065256 757.54027c-102.3398-78.259847-132.439741-91.503821-138.45973-93.911817L97.52381 663.628454c-0.601999 0-1.203998 0-2.407995 0L30.099941 663.628454c-16.253968 0-30.099941-13.845973-30.099941-31.303939l0-496.64903c0-16.855967 13.243974-31.303939 30.099941-31.303939l236.585538 0c6.019988-2.407995 34.313933-15.651969 124.613757-92.707819 52.975897-45.149912 100.533804-88.493827 100.533804-89.095826 6.621987-6.019988 15.651969-9.631981 24.079953-9.631981 4.815991 0 10.23398 1.203998 15.049971 3.009994 13.243974 6.019988 21.671958 19.865961 21.671958 34.313933L552.634921 817.138154C552.634921 832.188125 544.808936 844.8301 532.166961 851.452087zM850.624339 384.300999c0 96.319812-49.965902 180.599647-125.215755 225.749559-3.611993 1.805996-11.437978 5.417989-16.855967 5.417989-16.253968 0-30.099941-13.845973-30.099941-31.303939 0-11.437978 6.019988-21.671958 15.049971-27.089947 57.791887-34.313933 96.921811-98.727807 96.921811-172.773663 0-75.249853-40.333921-140.867725-99.931805-174.579659-8.427984-5.417989-14.447972-15.651969-14.447972-27.089947 0-17.457966 13.243974-31.303939 30.099941-31.303939 7.223986 0 15.049971 4.213992 15.049971 4.213992C798.250441 200.69135800000004 850.624339 286.17519100000004 850.624339 384.300999zM812.096414 768.376249c-5.417989 3.611993-10.835979 6.621987-18.059965 6.621987-16.253968 0-30.099941-13.845973-30.099941-31.303939 0-12.039976 7.223986-22.273956 16.855967-28.293945 109.563786-66.821869 183.609641-190.231628 183.609641-332.303351 0-73.443857-19.865961-141.469724-54.179894-199.86361-7.223986-12.039976-5.417989-27.089947 4.213992-36.721928 0 0 0 0 0.601999-0.601999 13.845973-13.243974 36.721928-10.835979 46.353909 6.019988 39.731922 67.423868 62.607878 146.285714 62.607878 231.167549C1024 547.442681 938.516167 690.718401 812.096414 768.376249zM894.570253 103.16754900000001c-10.835979 13.845973-31.905938 15.049971-43.945914 2.407995-21.069959-21.069959-43.945914-39.129924-69.229865-54.179894-9.631981-5.417989-18.059965-15.651969-18.059965-28.293945 0-17.457966 13.243974-31.303939 30.099941-31.303939 6.621987 0 12.039976 2.407995 17.457966 6.019988 29.497942 18.059965 57.189888 39.731922 81.269841 64.413874C903.600235 73.06760699999995 904.804233 90.52557300000001 894.570253 103.16754900000001 895.172252 102.56555000000003 894.570253 102.56555000000003 894.570253 103.16754900000001zM247.421517 607.040564c-33.711934-6.019988-97.52381-24.681952-139.663727-79.463845-7.223986-9.029982-5.417989-22.273956 3.611993-29.497942 0 0 0 0 0.601999 0 9.029982-7.223986 21.671958-5.417989 28.895944 3.009994 23.477954 28.895944 51.771899 56.587889 111.971781 64.413874 10.23398 1.203998 17.457966 9.631981 17.457966 19.263962l0 3.009994C270.297472 599.8165779999999 259.461493 608.8465610000001 247.421517 607.040564zM102.941799 470.98883C102.941799 470.98883 102.941799 470.98883 102.941799 470.98883c-12.039976 5.417989-25.885949-0.601999-29.497942-12.641975-2.407995-9.631981-4.815991-19.263962-6.019988-30.099941-1.805996-12.039976 7.223986-22.875955 19.263962-22.875955l3.611993 0c10.23398 0 18.661964 7.825985 19.263962 17.457966 0.601999 7.825985 1.805996 13.243974 4.213992 24.079953C116.787772 456.540858 111.971781 466.17284 102.941799 470.98883z"  horiz-adv-x="1024" />

    
    <glyph glyph-name="qiye" unicode="&#59031;" d="M929.316036-4.680346999999983l-25.810852 0 0 526.971993c0 22.306029-8.694009 43.279712-24.452925 59.010999-15.757892 15.757892-36.732599 24.452925-59.010999 24.452925L625.294834 605.75557 625.294834 744.859721c0 22.306029-8.694009 43.279712-24.452925 59.010999-15.757892 15.757892-36.732599 24.452925-59.010999 24.452925l-333.853647 0c-22.278399 0-43.253106-8.694009-59.010999-24.425296-15.757892-15.730263-24.451902-36.70497-24.451902-59.037605l0-749.541091-29.831422 0c-15.377222 0-27.821649-12.443403-27.821649-27.821649s12.443403-27.821649 27.821649-27.821649l834.634118 0c15.377222 0 27.821649 12.443403 27.821649 27.821649S944.694281-4.680346999999983 929.316036-4.680346999999983zM347.083461 105.00068199999998l-111.284549 0 0 111.284549 111.284549 0L347.083461 105.00068199999998zM347.083461 327.56978000000004l-111.284549 0 0 111.284549 111.284549 0L347.083461 327.56978000000004zM347.083461 550.138878l-111.284549 0 0 111.284549 111.284549 0L347.083461 550.138878zM514.010285 105.00068199999998L402.725736 105.00068199999998l0 111.284549 111.284549 0L514.010285 105.00068199999998zM514.010285 327.56978000000004L402.725736 327.56978000000004l0 111.284549 111.284549 0L514.010285 327.56978000000004zM514.010285 550.138878L402.725736 550.138878l0 111.284549 111.284549 0L514.010285 550.138878zM792.221658 105.00068199999998l-111.284549 0 0 111.284549 111.284549 0L792.221658 105.00068199999998zM792.221658 327.56978000000004l-111.284549 0 0 111.284549 111.284549 0L792.221658 327.56978000000004z"  horiz-adv-x="1024" />

    
    <glyph glyph-name="chuzhi" unicode="&#58895;" d="M933.84192 368.37888c0.00512 4.608-1.23392 6.95296-5.4784 8.99072-34.52928 16.58368-68.85376 33.59744-103.43424 50.08384-4.85376 2.31936-5.98528 5.02784-5.96992 9.94816 0.12288 94.67392 0.03584 189.3376 0.23552 284.0064 0.01536 5.90336-1.65376 7.15264-7.24992 7.0912-27.28448-0.29696-54.5792 0.04608-81.86368-0.3072-5.76-0.0768-6.86592 1.62816-6.77888 7.0144 0.32256 20.77696-0.00512 41.56416 0.2304 62.34112 0.0512 4.49024-1.32096 5.60128-5.65248 5.52448-14.68928-0.256-29.39904-0.39424-44.07296 0.0512-5.90336 0.1792-7.70048-1.13152-7.67488-7.41376 0.22528-94.24896 0.1536-188.50304 0.1536-282.752v-7.936c-2.86208 1.31584-4.74112 2.14016-6.58432 3.03616a1126987.75552 1126987.75552 0 0 0-447.16032 217.80992 23.77728 23.77728 0 0 1-10.82368 2.56c-40.50944-0.1024-81.024-0.19456-121.53856 0.04608-5.49888 0.03072-6.912-1.26976-6.90688-6.87616 0.15872-243.9168 0.1536-487.83872 0.01536-731.7504 0-5.21216 1.30048-6.5536 6.52288-6.54848 282.54208 0.128 565.08416 0.13312 847.62112-0.01536 5.4272-0.00512 6.40512 1.5616 6.4 6.6304-0.13824 126.14656-0.13312 252.30848 0.01024 378.46528zM239.42144 39.582719999999995a2237.29664 2237.29664 0 0 1-64.21504-0.00512c-4.82816-0.07168-6.30784 1.26976-6.28736 7.424 0.21504 57.67168 0.128 115.33312 0.128 172.99968 0 57.66144 0.1024 115.31776-0.13312 172.98944-0.03072 6.528 1.52576 7.83872 6.62016 7.74656 21.19168-0.35328 42.3936-0.35328 63.58528-0.00512 5.05856 0.08704 6.68672-1.20832 6.67648-7.75168-0.17408-115.328-0.17408-230.656 0-345.97376 0.00512-6.2976-1.62304-7.4752-6.3744-7.424z m110.78656 6.71232c0.00512-5.44256-1.31584-6.73792-5.65248-6.69696a2269.19424 2269.19424 0 0 1-65.47456-0.03072c-5.05344-0.09216-5.71392 2.05824-5.69856 7.40352 0.14848 57.91744 0.09216 115.83488 0.09216 173.76256 0 57.40032 0.09728 114.81088-0.13312 172.22656-0.0256 6.50752 1.49504 7.87968 6.61504 7.78752 21.40672-0.35328 42.81344-0.30208 64.21504-0.03584 4.44928 0.06144 6.07232-0.85504 6.06208-6.912-0.16384-115.82976-0.1536-231.66976-0.0256-347.50464z m96.16896-6.71232c-21.40672 0.24576-42.81344 0.32768-64.21504-0.04608-5.38112-0.1024-7.03488 1.23392-6.99904 8.2176 0.27648 57.41056 0.15872 114.82624 0.15872 172.23168 0 57.41056 0.0768 114.82624-0.10752 172.2368-0.02048 6.26176 0.7168 8.69888 6.66624 8.5504 21.6064-0.53248 43.23328-0.32256 64.8448-0.10752 3.96288 0.03584 5.32992-1.00864 5.3248-6.1952-0.128-116.08064-0.128-232.17664 0.00512-348.26752 0-5.51424-1.39264-6.67648-5.67808-6.62016z m110.12096 0c-21.40672 0.24576-42.81344 0.32768-64.21504-0.04608-5.38112-0.1024-7.03488 1.23392-6.99904 8.2176 0.27648 57.41056 0.15872 114.82624 0.15872 172.23168 0 57.41056 0.0768 114.82624-0.10752 172.2368-0.02048 6.26176 0.7168 8.69888 6.66624 8.5504 21.6064-0.53248 43.23328-0.32256 64.8448-0.10752 3.96288 0.03584 5.32992-1.00864 5.3248-6.1952-0.128-116.08064-0.128-232.17664 0.00512-348.26752 0.00512-5.51424-1.39264-6.67648-5.67808-6.62016z m212.55168 466.47808a2888.4224 2888.4224 0 0 1-49.39776-0.0256c-4.14208-0.04608-5.41696 0.57344-5.38112 3.81952 0.2048 26.67008 0.11776 53.34528 0.11776 80.01024 0 26.67008 0.05632 53.34528-0.09216 80.01024-0.01536 2.91328 0.55296 4.0448 5.13536 3.97312 16.61952-0.24576 33.2544-0.1536 49.87904-0.0512 3.05152 0.02048 4.10112-0.46592 4.096-2.87744-0.1024-53.92384-0.1024-107.85792 0.00512-161.792 0.01024-2.56-1.06496-3.0976-4.36224-3.06688z"  horiz-adv-x="1024" />

    
    <glyph glyph-name="fujian" unicode="&#58997;" d="M938.666667 704H569.6c-23.466667 0-44.8 4.266667-55.466667 25.6l-49.066666 87.466667c-10.666667 21.333333-32 36.266667-55.466667 36.266666H85.333333C49.066667 853.333333 21.333333 825.6 21.333333 789.333333v-810.666666c0-36.266667 27.733333-64 64-64h853.333334c36.266667 0 64 27.733333 64 64V640c0 34.133333-29.866667 64-64 64z m-149.333334-341.333333H234.666667c-12.8 0-21.333333 8.533333-21.333334 21.333333s8.533333 21.333333 21.333334 21.333333h554.666666c12.8 0 21.333333-8.533333 21.333334-21.333333s-10.666667-21.333333-21.333334-21.333333z"  horiz-adv-x="1024" />

    
    <glyph glyph-name="im_sousuo_c" unicode="&#58889;" d="M936.265 41.65999999999997L757.43 220.48000000000002c46.499 63.168 74.02 141.125 74.02 225.398 0 210.1-170.945 381.039-381.055 381.039S69.346 655.977 69.346 445.878c0-210.105 170.94-381.043 381.049-381.043 84.275 0 162.235 27.52 225.405 74.019l178.833-178.819c11.27-11.265 26.036-16.903 40.813-16.903 14.777 0 29.543 5.638 40.819 16.903 22.536 22.546 22.536 59.09 0 81.625zM163.14 445.878C163.14 604.267 292 733.13 450.396 733.13s287.261-128.862 287.261-287.252c0-158.39-128.867-287.252-287.261-287.252S163.14 287.48800000000006 163.14 445.878z"  horiz-adv-x="1024" />

    
    <glyph glyph-name="kehuguanli" unicode="&#58880;" d="M921.6 452.267H785.067a34.133 34.133 0 0 1 0-68.267H921.6a34.133 34.133 0 0 1 0 68.267m0 136.533H785.067a34.133 34.133 0 0 1 0-68.267H921.6a34.133 34.133 0 0 1 0 68.267m-136.533 68.267H921.6a34.133 34.133 0 0 1 0 68.266H785.067a34.133 34.133 0 0 1 0-68.266M799.744 247.46699999999998c-5.461 2.423-103.697 45.397-211.968 66.935 12.595 10.274 23.62 22.323 33.178 35.465a186.539 186.539 0 0 1 36.044 110.08V571.6990000000001a188.075 188.075 0 0 1-76.731 151.143 185.993 185.993 0 0 1-110.729 36.625c-103.39 0-187.494-84.241-187.494-187.768v-111.752c0-60.314 28.672-113.937 72.943-148.344-102.912-22.22-193.434-61.679-197.905-63.693-31.198-12.527-54.682-47.581-54.682-81.51v-140.493l1.843-5.359c10.138-29.764 37.479-49.732 68.028-49.732h611.191c35.5 0 64.888 26.522 69.291 60.757l0.58 134.827c0 16.247-5.53 32.768-14.575 46.933-9.693 15.224-23.415 27.75-39.014 34.134"  horiz-adv-x="1024" />

    
    <glyph glyph-name="tongzhigonggao" unicode="&#58881;" d="M866.3 182.46333332999995c-1.11 1.56-111.78 155.52-111.78 269.43 0 157.92-71.4 238.86-152.52 269.07V735.33333333c0 49.62-40.38 90-90 90s-90-40.38-90-90v-14.34c-81.12-30.21-152.52-111.15-152.52-269.07 0-113.64-110.64-267.42-111.75-268.95a30.121875 30.121875 0 0 1-4.98-24.33c1.92-8.4 7.38-15.63 15-19.71 5.31-2.88 100.68-53.7 218.94-79.23C406.76-2.546666670000036 455.9-44.66666667000004 512-44.66666667000004s105.24 42.12 125.28 104.34c118.23 25.41 213.6 75.93 218.91 78.78 7.65 4.08 13.14 11.28 15.06 19.71s0.12 17.31-4.95 24.3zM482 735.33333333c0 16.53 13.47 30 30 30s30-13.47 30-30v-0.87a236.379375 236.379375 0 0 1-19.98 0.87h-20.04c-6.6 0-13.26-0.3-19.98-0.87V735.33333333z m30-720c-20.94 0-40.44 12.57-54.36 33.09C475.64 46.533333330000005 493.82 45.33333332999996 512 45.33333332999996s36.36 1.2 54.36 3.09C552.44 27.873333330000037 532.91 15.33333332999996 512 15.33333332999996z"  horiz-adv-x="1024" />

    
    <glyph glyph-name="baojia" unicode="&#58882;" d="M512 832C264.96 832 64 631.04 64 384s200.96-448 448-448 448 200.96 448 448S759.04 832 512 832z m128.768-512c17.696 0 32-14.304 32-32s-14.304-32-32-32H544v-95.136c0-17.696-14.304-32-32-32s-32 14.304-32 32V256h-95.104c-17.696 0-32 14.304-32 32s14.304 32 32 32H480v64h-95.104c-17.696 0-32 14.304-32 32s14.304 32 32 32H480v19.776L361.568 586.4c-12.544 12.48-12.064 32.736 0.416 45.248 12.512 12.576 32.704 12.512 45.216 0.064l107.584-107.36 101.632 106.784c12.288 12.832 32.416 13.216 45.152 1.12 12.8-12.192 13.056-32.48 0.864-45.248L544 463.136V448h96.768c17.696 0 32-14.304 32-32s-14.304-32-32-32H544v-64h96.768z"  horiz-adv-x="1024" />

    
    <glyph glyph-name="shujufenxi" unicode="&#58883;" d="M912.49777778 820.90666667H111.50222222c-20.02488889 0-36.40888889-16.384-36.40888889-36.40888889v-800.99555556c0-20.02488889 16.384-36.40888889 36.40888889-36.40888889h800.99555556c20.02488889 0 36.40888889 16.384 36.40888889 36.40888889V784.49777778c0 20.02488889-16.384 36.40888889-36.40888889 36.40888889zM439.18222222 490.496l145.63555556-145.63555555 238.47822222 238.47822222 51.88266667-51.88266667L584.81777778 241.09511110999995l-145.63555556 145.63555556-92.84266667-91.93244445-51.88266666 51.88266667L439.18222222 490.496zM876.08888889 19.91111110999998H147.91111111V748.08888889h72.81777778v-655.36h655.36v-72.81777778z"  horiz-adv-x="1024" />

    
    <glyph glyph-name="tongji-tubiao" unicode="&#58890;" d="M912.8 584.8C943.2 524 960 456 960 384c0-247.2-200.8-448-448-448S64 136.79999999999995 64 384 264 832 512 832v-478.4l400.8 231.2zM576 833.6v-363.2l304 175.2c-69.6 99.2-178.4 169.6-304 188z"  horiz-adv-x="1024" />

    
    <glyph glyph-name="hetong" unicode="&#58884;" d="M912.49777778 820.90666667H111.50222222c-20.02488889 0-36.40888889-16.384-36.40888889-36.40888889v-800.99555556c0-20.02488889 16.384-36.40888889 36.40888889-36.40888889h800.99555556c20.02488889 0 36.40888889 16.384 36.40888889 36.40888889V784.49777778c0 20.02488889-16.384 36.40888889-36.40888889 36.40888889zM512 165.54666667000004H220.72888889V384h291.27111111v-218.45333333z m291.27111111 0H584.81777778v72.81777778h218.45333333v-72.81777778z m0 145.63555555H584.81777778v72.81777778h218.45333333v-72.81777778z m0 145.63555556H220.72888889V602.4533333300001h582.54222222v-145.63555555z"  horiz-adv-x="1024" />

    
    <glyph glyph-name="yangpin" unicode="&#58887;" d="M921.6 588.8H102.4V759.46666667c0 18.77333333 15.36 34.13333333 34.13333333 34.13333333h750.93333334c18.77333333 0 34.13333333-15.36 34.13333333-34.13333333v-170.66666667zM307.2-25.600000000000023H136.53333333c-18.77333333 0-34.13333333 15.36-34.13333333 34.13333333V520.53333333h204.8v-546.13333333z m580.26666667 0H375.46666667V520.53333333h546.13333333v-512c0-18.77333333-15.36-34.13333333-34.13333333-34.13333333z"  horiz-adv-x="1024" />

    
    <glyph glyph-name="jieshou" unicode="&#58885;" d="M493.79555555-51.99644445000001l-406.86933333 141.08444445c-7.28177778 2.73066667-11.83288889 9.10222222-11.83288889 17.29422222V639.77244445l418.70222222-127.43111112v-564.33777778z m36.4088889 0l406.86933333 141.08444445c7.28177778 2.73066667 11.83288889 9.10222222 11.83288889 17.29422222V639.77244445l-418.70222222-127.43111112v-564.33777778z m-455.11111112 728.17777778l436.90666667-127.43111111 436.90666667 127.43111111-431.44533334 142.90488889c-3.64088889 0.91022222-8.192 0.91022222-11.83288888 0L75.09333333 676.18133333z"  horiz-adv-x="1024" />

    
    <glyph glyph-name="shengchan-shezhi" unicode="&#58888;" d="M940 300l-76 57.6c0.8 8 1.6 16.8 1.6 26.4s-0.8 18.4-1.6 26.4l76 57.6c20.8 16 26.4 44 12.8 68L868 679.2c-9.6 16.8-28 27.2-47.2 27.2-6.4 0-12-0.8-18.4-3.2L712 668c-15.2 10.4-31.2 19.2-47.2 26.4l-13.6 92c-4 26.4-26.4 45.6-53.6 45.6H426.4c-27.2 0-49.6-19.2-53.6-44.8L360 694.4c-16-7.2-31.2-16-47.2-26.4l-90.4 35.2c-6.4 2.4-12.8 3.2-19.2 3.2-19.2 0-37.6-9.6-46.4-26.4L71.2 536c-13.6-22.4-8-52 12.8-68l76-57.6c-0.8-9.6-1.6-18.4-1.6-26.4s0-16.8 1.6-26.4L84 300c-20.8-16-26.4-44-12.8-68L156 88.79999999999995c9.6-16.8 28-27.2 47.2-27.2 6.4 0 12 0.8 18.4 3.2L312 100c15.2-10.4 31.2-19.2 47.2-26.4l13.6-92C376-44 399.2-64 426.4-64h171.2c27.2 0 49.6 19.2 53.6 44.8l13.6 92.8c16 7.2 31.2 16 47.2 26.4l90.4-35.2c6.4-2.4 12.8-3.2 19.2-3.2 19.2 0 37.6 9.6 46.4 26.4l85.6 144.8C966.4 256 960.8 284 940 300z m-236 84c0-105.6-86.4-192-192-192s-192 86.4-192 192 86.4 192 192 192 192-86.4 192-192z"  horiz-adv-x="1024" />

    
    <glyph glyph-name="taizhangguanli" unicode="&#58892;" d="M878.05496889 579.55214222L691.56864 782.24042667c-8.81095111 9.61194667-20.93511111 17.69472-33.93308445 24.21191111v-240.29866667l230.28622223-0.07281778c-3.13116445 4.76956445-6.29873778 9.61194667-9.8304 13.47128889M657.63555555 311.18222221999997H366.36444445a36.40888889 36.40888889 0 1 0 0 72.81777778h291.2711111a36.40888889 36.40888889 0 1 0 0-72.81777778m0-182.04444444H366.36444445a36.40888889 36.40888889 0 1 0 0 72.81777777h291.2711111a36.40888889 36.40888889 0 1 0 0-72.81777777m254.6437689 364.08888889H657.70837333A72.96341333 72.96341333 0 0 0 584.81777778 566.1900800000001V820.90666667H184.10154667A72.81777778 72.81777778 0 0 1 111.50222222 748.01607111v-727.99573333A72.81777778 72.81777778 0 0 1 184.02872889-52.90666667000005h655.94254222A72.81777778 72.81777778 0 0 1 912.49777778 20.093155550000006V491.36981333c0 0.61895111-0.18204445 1.27431111-0.21845333 1.89326222"  horiz-adv-x="1024" />

    
    <glyph glyph-name="zhiliang" unicode="&#58938;" d="M496 192h-128c-17.6 0-32-14.4-32-32s14.4-32 32-32h128c17.6 0 32 14.4 32 32s-14.4 32-32 32zM656 352H368c-17.6 0-32-14.4-32-32s14.4-32 32-32h288c17.6 0 32 14.4 32 32s-14.4 32-32 32zM656 512H368c-17.6 0-32-14.4-32-32s14.4-32 32-32h288c17.6 0 32 14.4 32 32s-14.4 32-32 32zM720 752h-22.4c-12.8 36.8-48 64-89.6 64H416c-41.6 0-76.8-27.2-89.6-64H304C216 752 144 680 144 592v-480c0-88 72-160 160-160h416c88 0 160 72 160 160V592c0 88-72 160-160 160zM416 752h192c17.6 0 32-14.4 32-32s-14.4-32-32-32H416c-17.6 0-32 14.4-32 32s14.4 32 32 32z m400-640c0-52.8-43.2-96-96-96H304c-52.8 0-96 43.2-96 96V592c0 52.8 43.2 96 96 96h22.4c12.8-36.8 48-64 89.6-64h192c41.6 0 76.8 27.2 89.6 64H720c52.8 0 96-43.2 96-96v-480z"  horiz-adv-x="1024" />

    
    <glyph glyph-name="caiwu" unicode="&#58947;" d="M512-48C273.6-48 80 145.60000000000002 80 384S273.6 816 512 816s432-193.6 432-432-193.6-432-432-432z m0 800C308.8 752 144 587.2 144 384s164.8-368 368-368 368 164.8 368 368S715.2 752 512 752zM672 345.6h-128v64h128c17.6 0 32 14.4 32 32s-14.4 32-32 32h-89.6l88 88c12.8 12.8 12.8 32 0 44.8-12.8 12.8-32 12.8-44.8 0L512 492.8l-113.6 113.6c-12.8 12.8-32 12.8-44.8 0-12.8-12.8-12.8-32 0-44.8l88-88H352c-17.6 0-32-14.4-32-32s14.4-32 32-32h128v-64h-128c-17.6 0-32-14.4-32-32s14.4-32 32-32h128v-128c0-17.6 14.4-32 32-32s32 14.4 32 32v128h128c17.6 0 32 14.4 32 32s-14.4 32-32 32z"  horiz-adv-x="1024" />

    
    <glyph glyph-name="shengchan" unicode="&#58955;" d="M875.2 675.2L571.2 832c-36.8 19.2-81.6 19.2-118.4 0l-304-158.4c-41.6-19.2-68.8-64-68.8-112v-356.8c0-48 27.2-91.2 68.8-113.6l305.6-158.4c17.6-9.6 38.4-14.4 59.2-14.4 20.8 0 40 4.8 59.2 14.4l302.4 156.8c43.2 22.4 68.8 65.6 68.8 113.6V561.6c0 48-27.2 92.8-68.8 113.6zM483.2 776c9.6 4.8 19.2 8 28.8 8 9.6 0 20.8-1.6 28.8-6.4l304-156.8c4.8-1.6 8-4.8 12.8-8L512 433.6l-345.6 176c3.2 3.2 8 6.4 12.8 8l304 158.4z m-304-627.2C156.8 160 144 182.39999999999998 144 206.39999999999998V550.4l128-65.6v-144c0-12.8 6.4-24 17.6-28.8l22.4-11.2c1.6-1.6 4.8-1.6 6.4-1.6 9.6 0 16 6.4 16 16v137.6l144-73.6v-385.6l-299.2 155.2z m665.6 0L544-8V379.20000000000005l336 171.2v-344c0-24-12.8-46.4-35.2-57.6z"  horiz-adv-x="1024" />

    
    <glyph glyph-name="shichang" unicode="&#58956;" d="M784 640h-80v64c0 52.8-43.2 96-96 96H416c-52.8 0-96-43.2-96-96v-64h-80C152 640 80 568 80 480v-352c0-88 72-160 160-160h544c88 0 160 72 160 160V480c0 88-72 160-160 160z m-400 64c0 17.6 14.4 32 32 32h192c17.6 0 32-14.4 32-32v-64H384v64z m-144-128h544c52.8 0 96-43.2 96-96v-32H144v32c0 52.8 43.2 96 96 96z m328-192c-11.2-19.2-32-32-56-32s-44.8 12.8-56 32h112zM784 32H240c-52.8 0-96 43.2-96 96V384h244.8c14.4-54.4 64-96 123.2-96s108.8 41.6 123.2 96H880v-256c0-52.8-43.2-96-96-96z"  horiz-adv-x="1024" />

    
    <glyph glyph-name="shezhi" unicode="&#58957;" d="M912 547.2c11.2-28.8 4.8-62.4-16-84.8-40-43.2-40-112 0-156.8 20.8-22.4 27.2-56 16-84.8-14.4-36.8-35.2-72-59.2-102.4-19.2-24-51.2-35.2-80-28.8-28.8 6.4-57.6 1.6-83.2-12.8s-43.2-38.4-52.8-65.6c-9.6-30.4-35.2-51.2-65.6-56-19.2-1.6-40-3.2-59.2-3.2-19.2 0-40 1.6-59.2 4.8-30.4 4.8-56 25.6-65.6 56-17.6 57.6-76.8 91.2-136 78.4-30.4-6.4-60.8 4.8-80 28.8-24 32-44.8 65.6-59.2 102.4-11.2 28.8-4.8 62.4 16 84.8 40 43.2 40 112 0 156.8-20.8 22.4-27.2 56-16 84.8 14.4 36.8 35.2 72 59.2 102.4 19.2 24 51.2 35.2 81.6 28.8 28.8-6.4 57.6-1.6 83.2 12.8s43.2 38.4 52.8 65.6c9.6 30.4 35.2 51.2 65.6 56 38.4 4.8 78.4 4.8 118.4 0 30.4-4.8 56-25.6 65.6-56 8-27.2 27.2-51.2 52.8-65.6 25.6-14.4 54.4-19.2 83.2-12.8 30.4 6.4 62.4-4.8 80-28.8 22.4-33.6 43.2-67.2 57.6-104z m-59.2-24c-12.8 30.4-30.4 60.8-51.2 86.4-3.2 4.8-9.6 6.4-16 4.8-43.2-9.6-89.6-3.2-128 19.2-40 22.4-68.8 59.2-81.6 102.4-1.6 6.4-6.4 11.2-12.8 11.2-33.6 4.8-67.2 4.8-100.8 0-6.4-1.6-11.2-4.8-12.8-11.2-12.8-43.2-41.6-80-81.6-102.4-38.4-22.4-84.8-28.8-129.6-19.2-6.4 1.6-12.8-1.6-16-4.8-20.8-27.2-38.4-56-51.2-86.4-1.6-6.4-1.6-12.8 3.2-17.6 62.4-68.8 62.4-174.4 0-243.2-4.8-4.8-4.8-11.2-3.2-16 12.8-32 30.4-60.8 49.6-86.4 3.2-4.8 11.2-6.4 16-6.4 91.2 20.8 182.4-33.6 211.2-121.6 1.6-6.4 6.4-9.6 12.8-11.2 16-1.6 33.6-3.2 49.6-3.2 17.6 0 33.6 1.6 51.2 3.2 6.4 1.6 11.2 4.8 12.8 11.2 12.8 43.2 41.6 80 81.6 102.4 38.4 22.4 84.8 28.8 129.6 19.2 6.4-1.6 12.8 1.6 16 4.8 20.8 27.2 38.4 56 51.2 86.4 1.6 4.8 1.6 12.8-3.2 17.6-62.4 68.8-62.4 174.4 0 243.2 4.8 4.8 4.8 11.2 3.2 17.6zM505.6 224c-88 0-160 72-160 160s72 160 160 160 160-72 160-160-70.4-160-160-160z m0 64c52.8 0 96 43.2 96 96s-43.2 96-96 96-96-43.2-96-96 43.2-96 96-96z"  horiz-adv-x="1024" />

    
    <glyph glyph-name="zhuye" unicode="&#58965;" d="M947.2 480L576 793.6c-35.2 30.4-88 30.4-123.2 0L76.8 480c-8-6.4-12.8-14.4-12.8-25.6 0-17.6 14.4-32 32-32 8 0 16 3.2 20.8 8l11.2 9.6v-356.8c0-72 54.4-131.2 123.2-131.2h521.6c67.2 0 123.2 59.2 123.2 131.2V440l9.6-8c6.4-4.8 12.8-8 22.4-8 17.6 0 32 14.4 32 32 0 8-4.8 17.6-12.8 24zM448 16V240c0 17.6 14.4 32 32 32h64c17.6 0 32-14.4 32-32v-224h-128z m384 67.2c0-36.8-27.2-67.2-60.8-67.2H640V240c0 52.8-43.2 96-96 96h-64c-52.8 0-96-43.2-96-96v-224h-131.2c-33.6 0-60.8 30.4-60.8 67.2V492.8L492.8 744c11.2 9.6 28.8 9.6 41.6 0L832 494.4v-411.2z"  horiz-adv-x="1024" />

    
    <glyph glyph-name="taizhang" unicode="&#58966;" d="M432 288h-128c-17.6 0-32-14.4-32-32s14.4-32 32-32h128c17.6 0 32 14.4 32 32s-14.4 32-32 32zM592 448H304c-17.6 0-32-14.4-32-32s14.4-32 32-32h288c17.6 0 32 14.4 32 32s-14.4 32-32 32zM592 608H304c-17.6 0-32-14.4-32-32s14.4-32 32-32h288c17.6 0 32 14.4 32 32s-14.4 32-32 32zM784 640v32c0 70.4-57.6 128-128 128H240c-70.4 0-128-57.6-128-128v-576c0-70.4 57.6-128 128-128h544c70.4 0 128 57.6 128 128V512c0 70.4-57.6 128-128 128z m64-544c0-35.2-28.8-64-64-64H240c-35.2 0-64 28.8-64 64V672c0 35.2 28.8 64 64 64h416c35.2 0 64-28.8 64-64v-480c0-17.6 14.4-32 32-32s32 14.4 32 32V576c35.2 0 64-28.8 64-64v-416z"  horiz-adv-x="1024" />

    
    <glyph glyph-name="yiqi" unicode="&#58886;" d="M330.114-11.844000000000051c-59.047-59.047-154.781-59.047-213.829 0-59.047 59.047-59.047 154.782 0 213.829l279.317 279.317 16.435 230.542c1.878 26.338 20.918 48.274 46.73 53.838L729.1 823.952a46.679 46.679 0 0 0 42.843-12.624c14.197-14.198 14.197-37.217 0-51.415L652.549 640.519l17.845-92.738 98.502-22.791 118.985 118.985c14.198 14.197 37.217 14.197 51.415 0a46.704 46.704 0 0 0 12.64-42.824l-58.054-270.546c-5.544-25.837-27.491-44.904-53.85-46.783l-230.698-16.447-279.22-279.219z"  horiz-adv-x="1024" />

    
    <glyph glyph-name="jiance" unicode="&#58903;" d="M582.16 307.85900000000004C605.167 335.56899999999996 619 371.169 619 410c0 88.366-71.634 160-160 160s-160-71.634-160-160 71.634-160 160-160c35.248 0 67.833 11.398 94.272 30.709l114.836-114.836c6.249-6.249 16.38-6.249 22.628 0l5.391 5.391c6.249 6.249 6.249 16.38 0 22.628L582.16 307.85900000000004zM532.916 823.452c5.976-5.902 11.462-10.74 16.457-14.514 69.582-52.57 195.867-87.22 311.058-94.767 4.226-0.277 9.668-0.553 16.325-0.829 8.571-0.354 15.345-7.733 15.345-16.715V354.85c0-81.28-33.485-166.473-87.403-224.947-27.983-39.074-63.757-75.737-101.28-111.859C604.234-89.51999999999998 435.93-89.05999999999995 328.032 6.17999999999995c-42.407 37.432-81.216 81.168-116.426 131.207C160.426 195.346 132 271.38199999999995 132 350.32000000000005V696.034c0 8.978 6.768 16.355 15.336 16.715 7.795 0.327 14.117 0.658 18.965 0.993 115.787 7.988 242.23 43.212 310.772 96.385 4.409 3.42 9.242 7.784 14.502 13.091 11.512 11.618 29.709 11.721 41.34 0.234zM459 298c-61.856 0-112 50.144-112 112s50.144 112 112 112 112-50.144 112-112-50.144-112-112-112z"  horiz-adv-x="1024" />

    
    <glyph glyph-name="zhiliangbiaozhun" unicode="&#58908;" d="M176.227 800h437.822c38.785 0 70.227-28.654 70.227-64v-704c0-35.346-31.442-64-70.227-64H176.227C137.442-32 106-3.3460000000000036 106 32V736c0 35.346 31.442 64 70.227 64z m24.14-178c0-8.837 7.164-16 16-16h288.411c8.837 0 16 7.163 16 16v16c0 8.837-7.163 16-16 16h-288.41c-8.837 0-16-7.163-16-16v-16z m0-164c0-8.837 7.164-16 16-16h288.411c8.837 0 16 7.163 16 16v16c0 8.837-7.163 16-16 16h-288.41c-8.837 0-16-7.163-16-16v-16z m0-164c0-8.837 7.164-16 16-16h288.411c8.837 0 16 7.163 16 16v16c0 8.837-7.163 16-16 16h-288.41c-8.837 0-16-7.163-16-16v-16z m0-164c0-8.837 7.164-16 16-16h288.411c8.837 0 16 7.163 16 16v16c0 8.837-7.163 16-16 16h-288.41c-8.837 0-16-7.163-16-16v-16zM847.774 800C886.558 800 918 771.346 918 736v-704c0-35.346-31.442-64-70.227-64H700.342c11.811 11.92 19.047 27.966 19.047 45.615v732.77c0 21.985-11.228 41.483-28.54 53.615h156.924z"  horiz-adv-x="1024" />

    
    <glyph glyph-name="caiwuguanli" unicode="&#58967;" d="M512 832C264.96 832 64 631.04 64 384s200.96-448 448-448 448 200.96 448 448S759.04 832 512 832z m128.768-512c17.696 0 32-14.304 32-32s-14.304-32-32-32H544v-95.136c0-17.696-14.304-32-32-32s-32 14.304-32 32V256h-95.104c-17.696 0-32 14.304-32 32s14.304 32 32 32H480v64h-95.104c-17.696 0-32 14.304-32 32s14.304 32 32 32H480v19.776L361.568 586.4c-12.544 12.48-12.064 32.736 0.416 45.248 12.512 12.576 32.704 12.512 45.216 0.064l107.584-107.36 101.632 106.784c12.288 12.832 32.416 13.216 45.152 1.12 12.8-12.192 13.056-32.48 0.864-45.248L544 463.136V448h96.768c17.696 0 32-14.304 32-32s-14.304-32-32-32H544v-64h96.768z"  horiz-adv-x="1024" />

    
    <glyph glyph-name="jianyan" unicode="&#58968;" d="M582.16 307.85900000000004C605.167 335.56899999999996 619 371.169 619 410c0 88.366-71.634 160-160 160s-160-71.634-160-160 71.634-160 160-160c35.248 0 67.833 11.398 94.272 30.709l114.836-114.836c6.249-6.249 16.38-6.249 22.628 0l5.391 5.391c6.249 6.249 6.249 16.38 0 22.628L582.16 307.85900000000004zM532.916 823.452c5.976-5.902 11.462-10.74 16.457-14.514 69.582-52.57 195.867-87.22 311.058-94.767 4.226-0.277 9.668-0.553 16.325-0.829 8.571-0.354 15.345-7.733 15.345-16.715V354.85c0-81.28-33.485-166.473-87.403-224.947-27.983-39.074-63.757-75.737-101.28-111.859C604.234-89.51999999999998 435.93-89.05999999999995 328.032 6.17999999999995c-42.407 37.432-81.216 81.168-116.426 131.207C160.426 195.346 132 271.38199999999995 132 350.32000000000005V696.034c0 8.978 6.768 16.355 15.336 16.715 7.795 0.327 14.117 0.658 18.965 0.993 115.787 7.988 242.23 43.212 310.772 96.385 4.409 3.42 9.242 7.784 14.502 13.091 11.512 11.618 29.709 11.721 41.34 0.234zM459 298c-61.856 0-112 50.144-112 112s50.144 112 112 112 112-50.144 112-112-50.144-112-112-112z"  horiz-adv-x="1024" />

    
    <glyph glyph-name="wushuizhan" unicode="&#58969;" d="M921.6 588.8H102.4V759.46666667c0 18.77333333 15.36 34.13333333 34.13333333 34.13333333h750.93333334c18.77333333 0 34.13333333-15.36 34.13333333-34.13333333v-170.66666667zM307.2-25.600000000000023H136.53333333c-18.77333333 0-34.13333333 15.36-34.13333333 34.13333333V520.53333333h204.8v-546.13333333z m580.26666667 0H375.46666667V520.53333333h546.13333333v-512c0-18.77333333-15.36-34.13333333-34.13333333-34.13333333z"  horiz-adv-x="1024" />

    


  </font>
</defs>
</svg>
